<?xml version="1.0" standalone="no"?>
<!DOCTYPE svg PUBLIC "-//W3C//DTD SVG 20010904//EN"
 "http://www.w3.org/TR/2001/REC-SVG-20010904/DTD/svg10.dtd">
<svg version="1.0" xmlns="http://www.w3.org/2000/svg"
 width="216.000000pt" height="125.000000pt" viewBox="0 0 216.000000 125.000000"
 preserveAspectRatio="xMidYMid meet">

<g transform="translate(0.000000,125.000000) scale(0.100000,-0.100000)"
fill="#000000" stroke="none">
<path d="M495 1129 c-253 -54 -463 -99 -467 -99 -5 0 -8 -178 -8 -395 l0 -395
158 0 c160 1 213 10 251 44 10 9 21 13 24 9 4 -3 7 -64 7 -135 l0 -128 55 0
55 0 0 110 0 110 93 0 c128 0 131 -3 135 -124 l4 -96 54 0 54 0 0 71 c0 59 42
573 80 979 14 149 14 150 -12 149 -13 0 -230 -45 -483 -100z m471 14 c-3 -32
-11 -123 -16 -203 -6 -80 -13 -150 -15 -157 -3 -8 -17 0 -37 20 l-33 32 28 34
c26 31 29 40 25 92 -3 45 -10 65 -29 85 -45 48 -68 54 -216 55 -76 0 -131 3
-123 7 18 7 389 90 409 91 11 1 12 -11 7 -56z m-506 -225 l0 -172 -27 26 c-44
42 -74 48 -239 48 l-155 0 3 92 3 92 195 42 c107 23 201 43 208 43 9 1 12 -40
12 -171z m328 70 c7 -7 12 -29 12 -50 0 -50 -18 -58 -129 -58 l-91 0 0 60 0
60 98 0 c63 0 102 -4 110 -12z m6 -229 c26 -20 34 -57 20 -94 -12 -30 -60 -45
-149 -45 l-85 0 0 80 0 80 94 0 c79 0 97 -3 120 -21z m-463 -49 c22 -12 27
-78 7 -98 -8 -8 -47 -12 -110 -12 l-98 0 0 60 0 60 91 0 c50 0 99 -5 110 -10z
m584 -150 c-6 -29 -8 -30 -20 -13 -11 15 -11 21 2 36 21 23 26 16 18 -23z
m-460 0 c0 -34 1 -34 -26 -19 -20 10 -20 11 -3 30 23 26 29 24 29 -11z m319
-61 c31 -14 49 -57 40 -93 -10 -43 -51 -57 -152 -54 l-87 3 -3 64 c-2 35 -1
70 2 77 7 18 163 19 200 3z m-425 -23 c30 -27 28 -80 -4 -111 -22 -23 -32 -25
-120 -25 l-95 0 0 81 0 81 99 -4 c80 -2 103 -7 120 -22z m541 -171 c0 -22 -2
-24 -19 -13 -18 11 -18 13 -3 25 22 16 22 17 22 -12z"/>
<path d="M1175 838 c-3 -8 -5 -46 -3 -84 l3 -69 32 -3 c18 -2 41 2 53 8 22 12
27 49 9 67 -8 8 -8 17 0 31 15 28 -6 51 -51 59 -28 4 -39 2 -43 -9z m82 -24
c7 -19 -23 -46 -47 -42 -8 2 -16 16 -18 31 -3 24 0 27 28 27 19 0 33 -6 37
-16z m3 -69 c18 -21 -4 -45 -41 -45 -26 0 -29 4 -29 30 0 26 3 30 29 30 16 0
34 -7 41 -15z"/>
<path d="M1865 785 c-30 -29 -32 -58 -4 -86 14 -14 30 -19 52 -17 28 3 32 7
35 36 3 28 0 32 -20 32 -20 -1 -21 -2 -5 -11 22 -13 22 -35 1 -43 -25 -9 -64
20 -64 48 0 33 24 50 60 42 31 -6 42 7 14 18 -28 11 -44 6 -69 -19z"/>
<path d="M1300 762 c0 -21 7 -48 16 -60 19 -27 60 -29 74 -3 13 25 13 101 0
101 -5 0 -10 -22 -10 -49 0 -36 -4 -51 -16 -55 -27 -10 -44 13 -44 60 0 24 -4
44 -10 44 -5 0 -10 -17 -10 -38z"/>
<path d="M1420 746 c0 -30 5 -58 10 -61 6 -4 10 17 10 54 0 34 -4 61 -10 61
-5 0 -10 -24 -10 -54z"/>
<path d="M1472 743 l-2 -63 35 0 c19 0 35 5 35 10 0 6 -13 10 -29 10 -29 0
-30 2 -34 53 l-3 52 -2 -62z"/>
<path d="M1550 745 c0 -60 10 -72 54 -61 84 21 69 116 -17 116 l-37 0 0 -55z
m71 35 c21 -12 25 -50 7 -68 -7 -7 -22 -12 -35 -12 -21 0 -23 5 -23 45 0 48
11 56 51 35z"/>
<path d="M1680 739 c0 -37 4 -58 10 -54 6 3 10 31 10 61 0 30 -4 54 -10 54 -6
0 -10 -27 -10 -61z"/>
<path d="M1720 740 c0 -71 18 -81 22 -12 l3 47 28 -47 c16 -27 33 -48 38 -48
5 0 8 28 7 63 l-1 62 -6 -50 -6 -50 -28 48 c-40 66 -57 62 -57 -13z"/>
<path d="M2050 575 c0 -87 16 -119 22 -42 3 37 6 42 28 42 22 0 25 -5 28 -42
4 -54 22 -57 22 -4 0 48 -23 75 -56 67 -22 -6 -24 -3 -24 29 0 19 -4 35 -10
35 -6 0 -10 -35 -10 -85z"/>
<path d="M1020 570 l0 -80 43 0 c24 0 48 5 55 12 15 15 16 54 2 63 -7 4 -7 13
-1 24 17 31 -13 61 -60 61 l-39 0 0 -80z m84 50 c17 -16 -3 -40 -34 -40 -25 0
-30 4 -30 23 0 13 3 27 7 30 7 8 43 -1 57 -13z m10 -76 c9 -24 -12 -44 -45
-44 -26 0 -29 4 -29 30 0 27 3 30 34 30 22 0 36 -6 40 -16z"/>
<path d="M1950 640 c0 -5 5 -10 11 -10 5 0 7 5 4 10 -3 6 -8 10 -11 10 -2 0
-4 -4 -4 -10z"/>
<path d="M1992 600 c-7 -12 -8 -20 -2 -20 5 0 10 -20 10 -44 0 -29 5 -46 15
-49 8 -4 17 -2 20 3 4 6 -1 10 -9 10 -24 0 -22 77 2 83 15 4 15 5 0 6 -9 0
-18 8 -20 16 -2 13 -6 12 -16 -5z"/>
<path d="M1157 604 c-11 -11 -8 -114 3 -114 6 0 10 11 10 25 0 14 4 25 10 25
5 0 17 -11 26 -25 9 -14 21 -25 26 -25 5 0 2 10 -6 22 -14 20 -14 24 1 41 13
14 15 22 7 35 -11 18 -64 28 -77 16z m63 -29 c0 -9 -9 -15 -25 -15 -16 0 -25
6 -25 15 0 9 9 15 25 15 16 0 25 -6 25 -15z"/>
<path d="M1263 550 c0 -36 2 -50 4 -32 2 17 2 47 0 65 -2 17 -4 3 -4 -33z"/>
<path d="M1300 550 l0 -60 39 0 c42 0 71 25 71 61 0 25 -48 59 -81 59 -29 0
-29 -1 -29 -60z m78 28 c27 -27 1 -78 -39 -78 -16 0 -19 7 -19 45 0 40 2 45
23 45 13 0 28 -5 35 -12z"/>
<path d="M1437 592 c-18 -19 -22 -59 -9 -78 13 -21 52 -35 77 -28 19 5 25 13
25 35 0 24 -4 29 -22 28 -13 0 -17 -3 -10 -6 6 -2 12 -13 12 -24 0 -13 -7 -19
-23 -19 -31 0 -47 18 -47 52 0 33 28 51 67 42 22 -4 25 -3 13 5 -23 17 -65 13
-83 -7z"/>
<path d="M1560 550 l0 -60 43 2 42 1 -37 4 c-30 3 -38 9 -38 24 0 15 7 19 31
19 17 0 28 4 24 10 -3 6 -17 10 -31 10 -15 0 -24 6 -24 15 0 10 10 15 30 15
17 0 30 5 30 10 0 6 -16 10 -35 10 l-35 0 0 -60z"/>
<path d="M1660 595 c-17 -20 -6 -43 26 -55 32 -13 26 -35 -9 -35 -31 1 -36
-11 -8 -20 44 -14 76 29 41 57 -11 9 -26 18 -32 20 -7 3 -9 12 -5 22 5 12 13
15 27 11 11 -4 20 -2 20 4 0 16 -46 13 -60 -4z"/>
<path d="M1784 565 c11 -45 25 -75 35 -75 5 0 15 16 21 35 13 40 25 39 33 -5
11 -53 33 -33 53 47 5 17 3 24 -4 19 -6 -3 -13 -20 -17 -36 -8 -36 -21 -31
-30 11 -8 37 -27 33 -40 -9 -12 -42 -22 -41 -31 3 -3 19 -11 35 -16 35 -6 0
-7 -11 -4 -25z"/>
<path d="M1950 540 c0 -27 5 -50 10 -50 6 0 10 23 10 50 0 28 -4 50 -10 50 -5
0 -10 -22 -10 -50z"/>
<path d="M1220 370 c0 -47 4 -80 10 -80 6 0 10 18 10 40 0 22 4 40 10 40 5 0
22 -18 36 -40 33 -50 54 -53 24 -4 l-22 35 20 20 c24 21 24 21 42 -43 7 -27
16 -48 21 -48 4 0 13 17 20 38 18 58 21 59 36 9 7 -26 18 -47 23 -47 5 0 16
24 24 54 19 63 19 66 7 66 -5 0 -12 -18 -16 -40 -8 -50 -20 -51 -32 -3 -12 53
-29 52 -46 -4 l-14 -48 -12 42 c-18 63 -49 93 -100 93 l-41 0 0 -80z m80 55
c17 -20 -3 -45 -36 -45 -20 0 -24 5 -24 30 0 25 4 30 24 30 13 0 29 -7 36 -15z"/>
<path d="M1511 354 c-13 -30 -21 -58 -17 -61 3 -3 8 2 12 11 4 10 18 16 39 16
21 0 35 -6 39 -16 4 -9 9 -15 12 -12 8 9 -40 118 -52 118 -6 0 -21 -25 -33
-56z m49 -1 c0 -7 -9 -13 -20 -13 -17 0 -18 3 -8 25 8 19 14 22 20 13 4 -7 8
-19 8 -25z"/>
<path d="M1610 350 c0 -71 18 -81 22 -12 l3 47 28 -47 c16 -27 33 -48 38 -48
5 0 8 28 7 63 l-1 62 -6 -50 -6 -50 -28 48 c-40 66 -57 62 -57 -13z"/>
<path d="M1740 350 l0 -60 33 0 c37 0 77 30 77 58 0 36 -29 62 -71 62 l-39 0
0 -60z m71 40 c21 -12 25 -50 7 -68 -7 -7 -22 -12 -35 -12 -21 0 -23 5 -23 45
0 48 11 56 51 35z"/>
<path d="M1874 354 c-14 -31 -23 -59 -20 -62 3 -3 8 3 12 12 4 10 18 16 39 16
21 0 35 -6 39 -16 4 -9 9 -14 13 -11 8 9 -37 117 -49 117 -5 0 -20 -25 -34
-56z m40 -12 c-22 -5 -27 3 -19 29 l7 22 14 -24 c11 -20 10 -25 -2 -27z"/>
</g>
</svg>
