<?xml version="1.0" standalone="no"?>
<!DOCTYPE svg PUBLIC "-//W3C//DTD SVG 20010904//EN"
 "http://www.w3.org/TR/2001/REC-SVG-20010904/DTD/svg10.dtd">
<svg version="1.0" xmlns="http://www.w3.org/2000/svg"
 width="838.000000pt" height="1006.000000pt" viewBox="0 0 838.000000 1006.000000"
 preserveAspectRatio="xMidYMid meet">

<g transform="translate(0.000000,1006.000000) scale(0.100000,-0.100000)"
fill="#000000" stroke="none">
<path d="M1515 9325 c-16 -8 -39 -14 -50 -14 -23 -1 -137 -35 -210 -63 -134
-52 -256 -133 -363 -241 -46 -46 -89 -93 -95 -104 -7 -12 -29 -51 -50 -87 -44
-75 -68 -136 -99 -251 -19 -69 -22 -106 -23 -275 0 -218 10 -273 71 -408 64
-140 183 -277 307 -352 79 -48 76 -61 -26 -109 -288 -132 -479 -353 -552 -636
-7 -27 -18 -63 -24 -78 -15 -38 -15 -396 0 -434 6 -15 17 -55 24 -88 38 -176
139 -358 274 -495 114 -114 213 -181 373 -248 150 -64 225 -81 438 -102 150
-15 2403 -13 2418 2 9 9 12 210 12 845 0 813 0 833 19 843 11 5 80 10 155 10
109 0 138 -3 150 -16 15 -14 16 -301 16 -3013 0 -2318 3 -3000 12 -3009 9 -9
100 -12 348 -12 184 0 345 3 358 6 l22 6 0 617 c0 467 3 620 12 629 15 15 869
17 897 2 15 -8 100 -129 337 -483 60 -89 160 -241 169 -255 20 -33 130 -197
135 -202 3 -3 32 -45 64 -95 114 -176 132 -200 156 -212 19 -10 134 -13 463
-13 396 0 438 2 444 16 3 9 2 22 -3 29 -5 7 -49 70 -99 139 -49 70 -112 158
-140 196 -27 38 -66 92 -85 120 -19 28 -60 85 -91 128 -30 42 -79 111 -107
152 -28 41 -78 111 -109 155 -32 44 -75 105 -96 135 -21 30 -62 89 -92 130
-137 191 -147 208 -136 228 6 11 42 31 84 46 170 62 376 201 506 343 220 239
324 505 324 833 1 506 -231 930 -633 1159 -115 65 -184 97 -277 125 -237 72
-291 76 -1050 76 l-642 0 -15 22 c-21 30 -23 279 -3 296 8 7 284 12 862 15
945 4 943 4 1151 73 370 122 601 353 728 725 l36 106 0 259 c0 204 -3 264 -14
279 -7 11 -17 36 -21 55 -14 67 -92 216 -152 290 -110 137 -214 218 -387 301
-58 27 -86 46 -85 57 0 10 30 36 67 60 274 175 414 502 373 866 -29 253 -118
452 -271 606 -135 137 -293 227 -490 279 -47 12 -98 28 -115 34 -22 9 -339 13
-1232 15 l-1203 2 0 -783 c0 -747 -1 -785 -18 -800 -15 -14 -42 -17 -158 -17
-96 0 -144 4 -152 12 -9 9 -12 200 -12 800 l0 788 -1197 -1 c-993 0 -1203 -3
-1228 -14z m1633 -681 c18 -4 34 -15 41 -30 7 -17 11 -154 11 -431 0 -364 -2
-408 -17 -425 -15 -17 -50 -18 -702 -18 -744 0 -762 1 -877 56 -101 48 -196
160 -226 267 -14 51 -15 207 -1 262 38 158 200 286 397 315 61 9 1330 13 1374
4z m3379 -22 c160 -55 243 -131 299 -275 20 -49 24 -79 24 -159 0 -92 -2 -103
-36 -174 -58 -122 -130 -189 -261 -242 l-68 -27 -720 -3 c-674 -3 -720 -2
-732 14 -10 14 -13 110 -13 420 0 221 3 415 6 432 4 17 14 33 23 36 9 2 331 3
716 2 688 -2 701 -3 762 -24z m-3345 -1599 c17 -15 18 -43 18 -485 0 -455 -1
-469 -20 -488 -20 -20 -33 -20 -776 -20 -722 0 -760 1 -839 20 -215 52 -345
164 -412 354 -65 184 18 407 196 530 57 40 177 86 246 95 33 5 399 9 814 10
689 1 756 0 773 -16z m3513 -7 c111 -41 161 -72 236 -146 114 -114 157 -221
146 -370 -14 -207 -161 -371 -402 -448 -44 -14 -151 -16 -835 -19 -495 -2
-791 0 -800 7 -13 8 -15 74 -18 478 -2 303 1 479 8 496 l10 27 802 -3 c750 -3
806 -5 853 -22z m-276 -2744 c279 -86 435 -257 486 -534 18 -100 18 -110 -13
-278 -12 -63 -84 -206 -133 -263 -79 -92 -203 -166 -351 -209 -71 -21 -93 -22
-718 -25 -602 -4 -645 -3 -657 13 -19 26 -19 1294 -1 1312 10 10 155 12 663
10 643 -4 651 -4 724 -26z"/>
<path d="M627 5003 c-4 -3 -7 -16 -7 -27 1 -21 1 -21 15 -1 10 12 33 22 63 26
l47 6 -56 2 c-31 0 -59 -2 -62 -6z"/>
<path d="M1996 4994 c-12 -31 -6 -37 17 -16 17 16 38 22 87 25 64 3 64 3 -16
5 -67 2 -83 -1 -88 -14z"/>
<path d="M1697 4983 c-9 -8 -9 -496 -1 -517 3 -9 17 -16 31 -16 l24 0 -21 27
c-20 26 -21 36 -19 265 1 131 0 241 -3 243 -3 3 -8 2 -11 -2z"/>
<path d="M820 4976 c0 -2 7 -9 15 -16 12 -10 15 -10 15 4 0 9 -7 16 -15 16 -8
0 -15 -2 -15 -4z"/>
<path d="M2730 4936 c0 -19 3 -41 6 -49 5 -14 8 -13 25 1 24 21 24 44 1 65
-27 24 -32 21 -32 -17z"/>
<path d="M882 4880 c0 -19 2 -27 5 -17 2 9 2 25 0 35 -3 9 -5 1 -5 -18z"/>
<path d="M818 4777 c-34 -28 -35 -37 -5 -37 28 0 47 17 47 42 0 23 -9 22 -42
-5z"/>
<path d="M617 4773 c-11 -10 -8 -43 4 -43 6 0 19 5 30 11 20 10 20 11 2 24
-21 16 -27 18 -36 8z"/>
<path d="M3820 4690 l-25 -6 32 -17 c39 -21 39 -21 47 -2 7 20 -23 34 -54 25z"/>
<path d="M950 4594 c0 -21 4 -33 10 -29 6 3 10 19 10 36 0 16 -4 29 -10 29 -5
0 -10 -16 -10 -36z"/>
<path d="M3810 4551 c-6 -12 -7 -21 -1 -21 10 0 24 30 17 37 -2 3 -9 -5 -16
-16z"/>
<path d="M3360 4530 c0 -5 5 -10 10 -10 6 0 10 5 10 10 0 6 -4 10 -10 10 -5 0
-10 -4 -10 -10z"/>
<path d="M3775 4510 c-3 -5 -1 -10 4 -10 6 0 11 5 11 10 0 6 -2 10 -4 10 -3 0
-8 -4 -11 -10z"/>
<path d="M1360 4495 c0 -8 2 -15 4 -15 2 0 6 7 10 15 3 8 1 15 -4 15 -6 0 -10
-7 -10 -15z"/>
<path d="M3142 4499 c2 -7 10 -15 17 -17 8 -3 12 1 9 9 -2 7 -10 15 -17 17 -8
3 -12 -1 -9 -9z"/>
<path d="M615 4470 c-7 -12 18 -24 37 -18 8 3 5 9 -9 16 -14 8 -24 9 -28 2z"/>
<path d="M1990 4465 c0 -9 9 -15 21 -15 18 0 19 2 9 15 -7 8 -16 15 -21 15 -5
0 -9 -7 -9 -15z"/>
<path d="M838 4453 c7 -3 16 -2 19 1 4 3 -2 6 -13 5 -11 0 -14 -3 -6 -6z"/>
<path d="M1158 4453 c7 -3 16 -2 19 1 4 3 -2 6 -13 5 -11 0 -14 -3 -6 -6z"/>
<path d="M2223 4453 c9 -2 23 -2 30 0 6 3 -1 5 -18 5 -16 0 -22 -2 -12 -5z"/>
<path d="M3478 4453 c7 -3 16 -2 19 1 4 3 -2 6 -13 5 -11 0 -14 -3 -6 -6z"/>
<path d="M1360 3829 c0 -17 4 -28 10 -24 6 3 10 17 10 31 0 13 -4 24 -10 24
-5 0 -10 -14 -10 -31z"/>
<path d="M1950 3834 c0 -8 5 -12 10 -9 6 3 10 10 10 16 0 5 -4 9 -10 9 -5 0
-10 -7 -10 -16z"/>
<path d="M1090 3830 c0 -5 9 -10 21 -10 11 0 17 5 14 10 -3 6 -13 10 -21 10
-8 0 -14 -4 -14 -10z"/>
<path d="M1550 3830 c0 -5 7 -10 16 -10 8 0 12 5 9 10 -3 6 -10 10 -16 10 -5
0 -9 -4 -9 -10z"/>
<path d="M1770 3574 c0 -174 3 -263 10 -259 6 4 10 103 10 266 0 166 -4 259
-10 259 -6 0 -10 -95 -10 -266z"/>
<path d="M1137 3790 c3 -11 9 -20 14 -20 11 0 11 3 3 24 -9 23 -23 20 -17 -4z"/>
<path d="M1591 3794 c0 -11 3 -14 6 -6 3 7 2 16 -1 19 -3 4 -6 -2 -5 -13z"/>
<path d="M3590 3742 c0 -34 4 -62 8 -62 10 0 7 108 -2 118 -3 3 -6 -22 -6 -56z"/>
<path d="M1586 3655 c-3 -8 -1 -17 3 -20 5 -3 11 2 15 10 3 8 1 17 -3 20 -5 3
-11 -2 -15 -10z"/>
<path d="M2360 3653 c0 -5 5 -15 10 -23 8 -12 10 -11 10 8 0 12 -4 22 -10 22
-5 0 -10 -3 -10 -7z"/>
<path d="M3625 3650 c3 -5 11 -10 16 -10 6 0 7 5 4 10 -3 6 -11 10 -16 10 -6
0 -7 -4 -4 -10z"/>
<path d="M1086 3625 c-24 -18 -17 -26 26 -28 27 -2 33 2 33 18 0 25 -33 30
-59 10z"/>
<path d="M1357 3621 c-5 -22 2 -71 12 -71 4 0 12 13 18 29 9 25 8 32 -7 46
-16 15 -18 14 -23 -4z"/>
<path d="M3190 3610 c0 -30 2 -32 28 -24 15 4 65 9 112 9 110 2 116 3 105 14
-6 5 -55 11 -110 13 -55 3 -108 8 -117 12 -15 7 -18 3 -18 -24z"/>
<path d="M905 3620 c-7 -11 2 -30 13 -30 4 0 14 5 22 10 13 9 13 11 0 20 -19
12 -27 12 -35 0z"/>
<path d="M3690 3610 c0 -5 9 -10 21 -10 11 0 17 5 14 10 -3 6 -13 10 -21 10
-8 0 -14 -4 -14 -10z"/>
<path d="M1518 3603 c6 -2 18 -2 25 0 6 3 1 5 -13 5 -14 0 -19 -2 -12 -5z"/>
<path d="M1450 3594 c0 -12 21 -44 29 -44 5 0 11 11 13 25 4 21 1 25 -18 25
-13 0 -24 -3 -24 -6z"/>
<path d="M3030 3500 c0 -27 4 -50 9 -50 10 0 20 68 13 88 -10 28 -22 8 -22
-38z"/>
<path d="M3810 3540 c0 -5 5 -10 11 -10 5 0 7 5 4 10 -3 6 -8 10 -11 10 -2 0
-4 -4 -4 -10z"/>
<path d="M2992 3400 c-10 -16 -10 -20 2 -20 7 0 16 9 19 20 3 11 2 20 -2 20
-3 0 -12 -9 -19 -20z"/>
<path d="M3555 3391 c-3 -5 -1 -12 5 -16 5 -3 10 1 10 9 0 18 -6 21 -15 7z"/>
<path d="M2952 3354 c-7 -8 -8 -14 -3 -14 10 0 25 19 20 25 -2 1 -10 -3 -17
-11z"/>
<path d="M3190 3326 c0 -9 5 -16 10 -16 6 0 10 4 10 9 0 6 -4 13 -10 16 -5 3
-10 -1 -10 -9z"/>
<path d="M1952 3319 c2 -7 10 -15 17 -17 8 -3 12 1 9 9 -2 7 -10 15 -17 17 -8
3 -12 -1 -9 -9z"/>
<path d="M3145 2720 c3 -5 24 -10 45 -10 29 0 42 -5 50 -19 6 -12 10 -116 10
-270 0 -156 4 -252 10 -256 7 -4 10 79 11 242 1 136 4 259 8 273 6 21 14 25
51 28 25 2 49 7 55 13 5 5 -39 9 -119 9 -82 0 -125 -4 -121 -10z"/>
<path d="M2557 2663 c-17 -16 -6 -61 18 -77 25 -16 25 -16 25 14 0 49 -24 83
-43 63z"/>
<path d="M3487 2496 c-9 -23 -9 -54 1 -59 4 -2 20 4 36 14 l30 18 -26 10 c-14
5 -28 15 -30 22 -3 9 -7 7 -11 -5z"/>
<path d="M3806 2477 c-17 -12 -16 -14 10 -26 22 -10 29 -10 35 1 19 30 -13 48
-45 25z"/>
<path d="M2631 2464 c0 -11 3 -14 6 -6 3 7 2 16 -1 19 -3 4 -6 -2 -5 -13z"/>
<path d="M2660 2363 c0 -12 5 -25 10 -28 13 -8 13 15 0 35 -8 12 -10 11 -10
-7z"/>
<path d="M2770 2359 c0 -5 5 -7 10 -4 6 3 10 8 10 11 0 2 -4 4 -10 4 -5 0 -10
-5 -10 -11z"/>
<path d="M2401 2286 c-17 -21 -2 -76 21 -76 23 0 32 21 24 54 -7 29 -30 40
-45 22z"/>
<path d="M2710 2280 c-20 -20 -20 -51 0 -73 12 -14 40 23 40 53 0 38 -15 45
-40 20z"/>
<path d="M1940 1536 c-15 -40 -13 -48 13 -44 17 2 21 9 19 28 -4 39 -20 47
-32 16z"/>
<path d="M2284 1537 c-3 -10 -3 -33 0 -52 6 -32 9 -34 27 -24 32 17 34 38 6
67 -23 23 -27 24 -33 9z"/>
<path d="M3642 1538 c-13 -13 -17 -58 -4 -58 19 0 44 28 41 45 -5 23 -21 29
-37 13z"/>
<path d="M1394 1516 c-3 -8 -4 -27 -2 -43 2 -20 9 -29 26 -31 18 -3 22 1 22
23 0 49 -33 85 -46 51z"/>
<path d="M1702 1510 c0 -14 2 -19 5 -12 2 6 2 18 0 25 -3 6 -5 1 -5 -13z"/>
<path d="M1368 1414 c-5 -4 -8 -19 -8 -33 0 -18 3 -22 11 -14 6 6 9 21 7 33
-1 12 -6 18 -10 14z"/>
<path d="M730 1315 c0 -22 3 -26 18 -20 46 20 68 17 87 -12 l19 -28 6 25 c4
18 14 26 33 28 57 7 24 18 -50 18 -43 -1 -86 3 -95 8 -15 7 -18 3 -18 -19z"/>
<path d="M1325 1289 c-4 -12 -2 -26 4 -32 8 -8 11 -2 11 21 0 37 -6 41 -15 11z"/>
<path d="M1627 1295 c-4 -8 -2 -17 3 -20 6 -4 10 3 10 14 0 25 -6 27 -13 6z"/>
<path d="M3522 1220 c0 -14 2 -19 5 -12 2 6 2 18 0 25 -3 6 -5 1 -5 -13z"/>
<path d="M3782 1220 c0 -14 2 -19 5 -12 2 6 2 18 0 25 -3 6 -5 1 -5 -13z"/>
<path d="M1817 1223 c-11 -10 -8 -43 3 -43 6 0 10 11 10 25 0 26 -2 29 -13 18z"/>
<path d="M2070 1210 c0 -11 5 -20 10 -20 6 0 10 9 10 20 0 11 -4 20 -10 20 -5
0 -10 -9 -10 -20z"/>
<path d="M1282 1155 c-6 -14 -18 -25 -27 -25 -8 0 -15 -8 -15 -17 0 -28 12
-63 20 -63 8 0 50 101 50 120 0 19 -17 10 -28 -15z"/>
<path d="M1534 1135 c-7 -17 1 -53 16 -75 9 -13 11 -13 20 0 5 8 10 32 10 53
0 31 -3 37 -20 37 -11 0 -23 -7 -26 -15z"/>
<path d="M2670 1105 c0 -11 33 -55 41 -55 18 0 8 25 -16 43 -14 10 -25 15 -25
12z"/>
<path d="M2935 1030 c3 -5 16 -10 28 -9 21 0 21 1 2 9 -28 12 -37 12 -30 0z"/>
</g>
</svg>
